<svg width="14" height="13" viewBox="0 0 14 13" fill="none" xmlns="http://www.w3.org/2000/svg">
<path d="M10.9988 2.5C11.413 2.5 11.7488 2.83579 11.7488 3.25C11.7488 3.6297 11.4667 3.94349 11.1006 3.99315L10.9988 4H1.69922C1.28501 4 0.949219 3.66421 0.949219 3.25C0.949219 2.8703 1.23137 2.55651 1.59745 2.50685L1.69922 2.5H10.9988Z" fill="black"/>
<path d="M9.85661 0.399201C10.12 0.130102 10.5364 0.10144 10.8323 0.316142L10.9172 0.387856L12.4782 1.91579C13.0851 2.50989 13.1732 3.44666 12.7085 4.1398L12.6148 4.26677L11.2524 5.95156C10.992 6.27364 10.5197 6.32361 10.1977 6.06316C9.90485 5.82638 9.83694 5.41458 10.0227 5.09967L10.0861 5.00838L11.4485 3.32359C11.516 3.24006 11.5214 3.12514 11.468 3.03697L11.4289 2.98774L9.86795 1.4598C9.57194 1.17006 9.56686 0.695211 9.85661 0.399201Z" fill="black"/>
<path d="M2.95432 9.90088C2.5401 9.90088 2.20432 9.56509 2.20432 9.15088C2.20432 8.77118 2.48647 8.45739 2.85254 8.40773L2.95432 8.40088L12.2539 8.40088C12.6681 8.40088 13.0039 8.73667 13.0039 9.15088C13.0039 9.53057 12.7218 9.84437 12.3557 9.89403L12.2539 9.90088L2.95432 9.90088Z" fill="black"/>
<path d="M4.1473 11.8308C3.8839 12.0999 3.46752 12.1285 3.17159 11.9138L3.0867 11.8421L1.52572 10.3142C0.918781 9.72009 0.830666 8.78332 1.29545 8.09018L1.38909 7.96321L2.75148 6.27842C3.01193 5.95634 3.48417 5.90637 3.80625 6.16683C4.09906 6.4036 4.16697 6.8154 3.98121 7.13031L3.91785 7.2216L2.55545 8.90639C2.48791 8.98992 2.48252 9.10484 2.53591 9.19301L2.57497 9.24224L4.13595 10.7702C4.43196 11.0599 4.43704 11.5348 4.1473 11.8308Z" fill="black"/>
</svg>
