<svg width="11" height="13" viewBox="0 0 11 13" fill="none" xmlns="http://www.w3.org/2000/svg">
<path fill-rule="evenodd" clip-rule="evenodd" d="M11 2C11 0.89543 10.1046 0 9 0H2C0.89543 0 0 0.89543 0 2V11.0652C0 11.4968 0.174046 11.9102 0.482771 12.2119C1.11609 12.8307 2.13116 12.819 2.75 12.1857L4.80111 10.087C5.19613 9.70098 5.82925 9.7083 6.21523 10.1033L8.25 12.1857C8.55167 12.4944 8.96508 12.6684 9.39672 12.6684C10.2822 12.6684 11 11.9506 11 11.0652V2ZM2 1.5H9L9.08988 1.50806C9.32312 1.55039 9.5 1.75454 9.5 2V11.0652L9.49188 11.1054C9.4762 11.1424 9.4395 11.1684 9.39672 11.1684C9.36891 11.1684 9.34228 11.1572 9.32285 11.1373L7.28808 9.05498L7.15882 8.93167C6.18661 8.06772 4.69738 8.09111 3.75279 9.01411L1.67715 11.1373L1.64325 11.1604C1.60613 11.176 1.5617 11.1689 1.5311 11.139C1.51121 11.1196 1.5 11.093 1.5 11.0652V2L1.50806 1.91012C1.55039 1.67688 1.75454 1.5 2 1.5Z" fill="black"/>
</svg>
