<svg width="170" height="37" viewBox="0 0 170 37" fill="none" xmlns="http://www.w3.org/2000/svg">
<path d="M0.914062 12C0.914062 5.37258 6.28664 0 12.9141 0H25.9141C32.5415 0 37.9141 5.37258 37.9141 12V25C37.9141 31.6274 32.5415 37 25.9141 37H12.9141C6.28664 37 0.914062 31.6274 0.914062 25V12Z" fill="#00BC52"/>
<path fill-rule="evenodd" clip-rule="evenodd" d="M77.8664 25.2799C82.0424 25.2799 84.2744 23.0719 84.2744 18.7039V18.4159C84.2744 13.8559 81.8744 12.4399 79.5704 12.4399C77.9384 12.4399 76.8344 12.8959 75.9224 13.4959H75.8024V7.47192H73.0424V24.5599C74.1944 25.0159 76.2104 25.2799 77.8664 25.2799ZM57.4875 24.2719C56.6955 24.7759 55.5435 25.2319 53.8395 25.2319C50.1915 25.2319 47.9355 23.1919 47.9355 19.1119V18.7279C47.9355 14.4559 50.5275 12.4399 53.9595 12.4399C55.5915 12.4399 56.5755 12.7519 57.3675 13.1839V15.3439C56.3355 14.9359 55.5915 14.6719 54.1275 14.6719C52.0635 14.6719 50.7915 15.9679 50.7915 18.4399V18.9919C50.7915 21.8239 51.9675 23.0239 54.3195 23.0239C55.8237 23.0239 56.8528 22.5489 57.4777 22.2604L57.4875 22.2559V24.2719ZM65.889 25.3519C65.073 27.7039 63.873 28.5679 61.593 28.5679C60.969 28.5679 60.153 28.3999 59.793 28.1599V26.3119C60.105 26.3839 60.561 26.4319 60.993 26.4319C62.121 26.4319 62.865 26.1439 63.297 24.9679L63.633 24.1039L58.977 12.6559H61.905L65.025 20.6719H65.121L68.001 12.6559H70.665L65.889 25.3519ZM75.8024 22.8079C76.2824 22.9759 76.9784 23.1679 78.0344 23.1679C79.8344 23.1679 81.3944 22.3279 81.3944 19.1119V18.6319C81.3944 15.6319 80.4104 14.6959 78.2744 14.6959C77.2424 14.6959 76.3064 15.0559 75.8024 15.2959V22.8079ZM92.6038 25.2319C94.6918 25.2319 96.1318 24.6319 96.9718 24.0799V22.1599C95.8918 22.7119 94.7398 23.0719 93.1558 23.0719C90.8038 23.0719 89.4838 22.1599 89.3158 19.5919H97.3798V18.4399C97.3798 14.5039 95.7958 12.4639 92.1478 12.4639C89.0038 12.4639 86.4838 14.5039 86.4838 18.6559V18.9919C86.4838 22.9039 88.4998 25.2319 92.6038 25.2319ZM89.3158 17.6959H94.5718C94.5718 15.3679 93.7078 14.5039 92.0998 14.5039C90.8278 14.5039 89.5078 15.1759 89.3158 17.6959ZM102.973 25.0159V15.8239C103.765 15.3199 104.869 15.0079 105.973 15.0079C106.261 15.0079 106.669 15.0319 106.981 15.0799V12.6319C106.861 12.5839 106.549 12.5599 106.213 12.5599C104.917 12.5599 103.645 13.2079 102.973 14.0959H102.877V12.6559H100.213V25.0159H102.973ZM124.264 21.3679C124.264 23.9359 122.56 25.2079 119.536 25.2079C117.928 25.2079 116.488 24.9199 115.456 24.3679V22.3519C116.488 22.7599 117.4 23.1199 119.128 23.1199C120.856 23.1199 121.576 22.5439 121.576 21.6319C121.576 20.7439 121.096 20.3119 119.752 20.0239L118.6 19.7599C116.704 19.3759 115.456 18.4159 115.456 16.2079C115.456 13.9279 116.92 12.4639 120.04 12.4639C121.72 12.4639 122.776 12.7759 123.592 13.1359V15.2239C122.872 14.9119 121.672 14.5519 120.28 14.5519C118.84 14.5519 118.072 15.0319 118.072 15.9919C118.072 16.8559 118.552 17.1679 119.728 17.4559L120.904 17.7199C123.328 18.2719 124.264 19.2319 124.264 21.3679ZM131.345 25.1599C132.497 25.1599 133.169 24.8959 133.649 24.6559V22.8079C133.217 22.9279 132.713 22.9999 132.233 22.9999C130.937 22.9999 130.553 22.6159 130.553 21.5839V14.8159H133.505V12.6559H130.553V9.75192H127.841V12.6559H126.113V14.8159H127.841V21.9679C127.841 24.2959 129.209 25.1599 131.345 25.1599ZM147.475 18.9679C147.475 22.9519 145.075 25.2319 141.619 25.2319C137.851 25.2319 135.763 22.9519 135.763 19.0879V18.7039C135.763 14.7439 138.163 12.4399 141.643 12.4399C145.339 12.4399 147.475 14.6959 147.475 18.6319V18.9679ZM141.667 23.1439C139.939 23.1439 138.595 22.2799 138.595 19.0879V18.5119C138.595 15.8479 139.699 14.5279 141.595 14.5279C143.275 14.5279 144.595 15.3919 144.595 18.6079V19.2079C144.595 21.8719 143.515 23.1439 141.667 23.1439ZM153.068 15.8239V25.0159H150.308V12.6559H152.972V14.0959H153.068C153.74 13.2079 155.012 12.5599 156.308 12.5599C156.644 12.5599 156.956 12.5839 157.076 12.6319V15.0799C156.764 15.0319 156.356 15.0079 156.068 15.0079C154.964 15.0079 153.86 15.3199 153.068 15.8239ZM165.07 25.2319C167.158 25.2319 168.598 24.6319 169.438 24.0799V22.1599C168.358 22.7119 167.206 23.0719 165.622 23.0719C163.27 23.0719 161.95 22.1599 161.782 19.5919H169.846V18.4399C169.846 14.5039 168.262 12.4639 164.614 12.4639C161.47 12.4639 158.95 14.5039 158.95 18.6559V18.9919C158.95 22.9039 160.966 25.2319 165.07 25.2319ZM161.782 17.6959H167.038C167.038 15.3679 166.174 14.5039 164.566 14.5039C163.294 14.5039 161.974 15.1759 161.782 17.6959Z" fill="black"/>
<path d="M24.9999 9.5C25.8284 9.5 26.4999 10.1716 26.4999 11C26.4999 11.7797 25.905 12.4204 25.1444 12.4931L24.9999 12.5L11.99 12.4997L13.998 19.4997L21.5127 19.5C22.2924 19.5 22.9332 20.0949 23.0059 20.8555L23.0127 21C23.0127 21.7797 22.4178 22.4204 21.6572 22.4931L21.5127 22.5H13.6222C12.5656 22.5 11.6302 21.8371 11.2732 20.8558L11.2191 20.6894L8.92408 12.6894C8.85977 12.4652 8.82715 12.2332 8.82715 12C8.82715 10.6745 9.85868 9.58996 11.1628 9.50532L11.3271 9.5H24.9999Z" fill="white"/>
<path d="M18.7129 27.5C17.8845 27.5 17.2129 26.8284 17.2129 26C17.2129 25.2203 17.8078 24.5796 18.5684 24.5069L18.7129 24.5L26.3297 24.5003L24.2367 17.5003L16.3428 17.5C15.5631 17.5 14.9223 16.9051 14.8496 16.1445L14.8428 16C14.8428 15.2203 15.4377 14.5796 16.1983 14.5069L16.3428 14.5H24.6079C25.6513 14.5 26.5779 15.1469 26.9443 16.1105L27.0031 16.2838L29.3952 24.2838C29.4647 24.5162 29.5 24.7574 29.5 25C29.5 26.3255 28.4685 27.41 27.1644 27.4947L27 27.5H18.7129Z" fill="white"/>
</svg>
