<svg width="24" height="24" viewBox="0 0 24 24" fill="none" xmlns="http://www.w3.org/2000/svg">
<path d="M0 7.78378C0 3.48492 3.48492 0 7.78378 0H16.2162C20.5151 0 24 3.48492 24 7.78378V16.2162C24 20.5151 20.5151 24 16.2162 24H7.78378C3.48492 24 0 20.5151 0 16.2162V7.78378Z" fill="#00BC52"/>
<path d="M15.623 6.16235C16.1604 6.16235 16.596 6.59797 16.596 7.13533C16.596 7.64108 16.2101 8.0567 15.7167 8.10385L15.623 8.1083L7.18412 8.10808L8.48661 12.6486L13.3611 12.6488C13.8668 12.6488 14.2824 13.0347 14.3296 13.5281L14.334 13.6218C14.334 14.1276 13.9482 14.5432 13.4548 14.5903L13.3611 14.5948H8.24285C7.55754 14.5948 6.95075 14.1648 6.71917 13.5283L6.6841 13.4203L5.19544 8.23114C5.15373 8.08575 5.13257 7.93523 5.13257 7.78398C5.13257 6.9242 5.80167 6.22071 6.64757 6.1658L6.75419 6.16235H15.623Z" fill="white"/>
<path d="M11.5449 17.8376C11.0076 17.8376 10.572 17.402 10.572 16.8647C10.572 16.3589 10.9578 15.9433 11.4512 15.8962L11.5449 15.8917L16.4856 15.8919L15.128 11.3514L10.0076 11.3512C9.50182 11.3512 9.0862 10.9653 9.03905 10.4719L9.0346 10.3782C9.0346 9.87244 9.42047 9.45681 9.91387 9.40967L10.0076 9.40521H15.3687C16.0456 9.40521 16.6466 9.82483 16.8843 10.4499L16.9224 10.5623L18.474 15.7515C18.5191 15.9022 18.542 16.0587 18.542 16.216C18.542 17.0758 17.8729 17.7793 17.027 17.8342L16.9204 17.8376H11.5449Z" fill="white"/>
</svg>
